<svg width="42" height="45" viewBox="0 0 42 45" fill="none" xmlns="http://www.w3.org/2000/svg">
<g filter="url(#filter0_d_43_2325)">
<path d="M9.95833 4.40148C10.1705 4.51087 10.3496 4.68228 10.4749 4.89599C10.6002 5.10969 10.6667 5.357 10.6667 5.60943C10.6667 7.09256 11.1867 7.9467 11.8383 8.98668L11.8867 9.06173C12.44 9.94446 13.1667 11.1006 13.1667 12.7571C13.1667 14.4475 12.3717 15.9377 11.16 16.8223C11.4783 17.1082 11.76 17.4602 12.0033 17.8819C12.7967 19.2578 13.1667 21.361 13.1667 24.3809C13.1667 27.4401 12.7833 31.1139 12.1583 34.048C11.8483 35.5061 11.4633 36.8517 11.005 37.8613C10.7886 38.3636 10.502 38.8276 10.155 39.2372C9.81167 39.6142 9.28333 40.0163 8.58333 40.0163C7.88333 40.0163 7.355 39.6142 7.01333 39.2372C6.66535 38.8284 6.37861 38.3643 6.16334 37.8613C5.70334 36.8499 5.31833 35.5061 5.00833 34.0462C4.35825 30.8705 4.02029 27.6304 4 24.3791C4 21.3592 4.37 19.2578 5.16333 17.8819C5.38966 17.4825 5.67441 17.1247 6.00667 16.8223C5.38796 16.3719 4.88156 15.7659 4.53175 15.0572C4.18195 14.3486 3.99938 13.5588 4 12.7571C4 12.0995 4 10.9684 4.63833 9.50846C5.26333 8.07893 6.45167 6.43677 8.635 4.5623C8.81901 4.40449 9.04089 4.30566 9.27503 4.2772C9.50917 4.24875 9.74604 4.29183 9.95833 4.40148ZM6.5 12.7553C6.5 13.3477 6.71949 13.9176 7.1102 14.3365C7.5009 14.7554 8.0308 14.9907 8.58333 14.9907C9.13587 14.9907 9.66577 14.7554 10.0565 14.3365C10.4472 13.9176 10.6667 13.3494 10.6667 12.7571C10.6667 11.9726 10.3583 11.4294 9.76334 10.4805L9.74333 10.4484C9.36167 9.84082 8.91 9.1207 8.59 8.19687C7.685 9.18324 7.185 10.0016 6.90334 10.6449C6.5 11.567 6.5 12.2246 6.5 12.7553ZM7.29 19.29C6.87667 20.0083 6.5 21.4807 6.5 24.3809C6.5 27.2417 6.86333 30.7155 7.445 33.4512C7.73833 34.8271 8.07167 35.9439 8.41 36.6873C8.47167 36.8249 8.53 36.9392 8.58333 37.0357C8.63667 36.9392 8.695 36.8249 8.75667 36.6873C9.095 35.9439 9.42833 34.8253 9.72167 33.4512C10.305 30.7172 10.6667 27.2435 10.6667 24.3809C10.6667 21.4807 10.29 20.0083 9.87667 19.29C9.75201 19.0481 9.5636 18.8511 9.335 18.7235C9.09831 18.613 8.84127 18.5617 8.58333 18.5734C8.25 18.5734 8.01167 18.6288 7.83167 18.7235C7.60307 18.8511 7.41466 19.0481 7.29 19.29ZM17.3333 27.3525C16.4503 27.1937 15.5914 26.9076 14.78 26.5019C14.8288 25.4885 14.8427 24.4734 14.8217 23.4588C15.5733 24.0003 16.4217 24.3987 17.3333 24.6203V19.4579C17.3333 18.7471 17.5967 18.0653 18.0656 17.5626C18.5344 17.06 19.1703 16.7776 19.8333 16.7776H26.5C26.4999 15.2778 26.1086 13.808 25.3704 12.5341C24.6321 11.2602 23.5762 10.2331 22.3221 9.56882C21.068 8.9045 19.6655 8.62947 18.2733 8.7748C16.881 8.92012 15.5544 9.48 14.4433 10.3912C14.11 9.40303 13.635 8.64717 13.305 8.12182L13.2383 8.01461C14.7358 6.88286 16.4944 6.21392 18.3223 6.0808C20.1502 5.94767 21.977 6.35549 23.6034 7.25973C25.2299 8.16397 26.5933 9.52987 27.545 11.2083C28.4967 12.8868 29 14.8133 29 16.7776H34.8333C35.4964 16.7776 36.1323 17.06 36.6011 17.5626C37.0699 18.0653 37.3333 18.7471 37.3333 19.4579V35.5401C37.3333 36.251 37.0699 36.9327 36.6011 37.4354C36.1323 37.9381 35.4964 38.2205 34.8333 38.2205H19.8333C19.1703 38.2205 18.5344 37.9381 18.0656 37.4354C17.5967 36.9327 17.3333 36.251 17.3333 35.5401V27.3507V27.3525ZM19.8333 27.4651V35.5419H34.8333V19.4597H28.6833C28.1641 21.613 27.0335 23.54 25.448 24.9742C23.8625 26.4084 21.9005 27.2788 19.8333 27.4651ZM26.0733 19.4597H19.8333V24.7722C21.2337 24.6039 22.5615 24.0164 23.665 23.0769C24.7685 22.1374 25.6031 20.8839 26.0733 19.4597Z" fill="#0EE6B7"/>
</g>
<defs>
<filter id="filter0_d_43_2325" x="0" y="0.268677" width="41.3333" height="43.7476" filterUnits="userSpaceOnUse" color-interpolation-filters="sRGB">
<feFlood flood-opacity="0" result="BackgroundImageFix"/>
<feColorMatrix in="SourceAlpha" type="matrix" values="0 0 0 0 0 0 0 0 0 0 0 0 0 0 0 0 0 0 127 0" result="hardAlpha"/>
<feOffset/>
<feGaussianBlur stdDeviation="2"/>
<feComposite in2="hardAlpha" operator="out"/>
<feColorMatrix type="matrix" values="0 0 0 0 0.054902 0 0 0 0 0.901961 0 0 0 0 0.717647 0 0 0 1 0"/>
<feBlend mode="normal" in2="BackgroundImageFix" result="effect1_dropShadow_43_2325"/>
<feBlend mode="normal" in="SourceGraphic" in2="effect1_dropShadow_43_2325" result="shape"/>
</filter>
</defs>
</svg>
