<svg width="40" height="43" viewBox="0 0 40 43" fill="none" xmlns="http://www.w3.org/2000/svg">
<g filter="url(#filter0_d_43_2328)">
<path d="M12.8889 4C11.9459 4 11.0415 4.40163 10.3747 5.11653C9.70794 5.83143 9.33333 6.80104 9.33333 7.81207V15.4362C9.33333 16.4472 8.95873 17.4168 8.29194 18.1317C7.62514 18.8466 6.72077 19.2483 5.77778 19.2483H4V23.0603H5.77778C6.72077 23.0603 7.62514 23.462 8.29194 24.1769C8.95873 24.8918 9.33333 25.8614 9.33333 26.8724V34.4965C9.33333 35.5075 9.70794 36.4772 10.3747 37.1921C11.0415 37.907 11.9459 38.3086 12.8889 38.3086H16.4444V34.4965H12.8889V24.9664C12.8889 23.9553 12.5143 22.9857 11.8475 22.2708C11.1807 21.5559 10.2763 21.1543 9.33333 21.1543C10.2763 21.1543 11.1807 20.7527 11.8475 20.0378C12.5143 19.3229 12.8889 18.3532 12.8889 17.3422V7.81207H16.4444V4M27.1111 4C28.0541 4 28.9585 4.40163 29.6253 5.11653C30.2921 5.83143 30.6667 6.80104 30.6667 7.81207V15.4362C30.6667 16.4472 31.0413 17.4168 31.7081 18.1317C32.3749 18.8466 33.2792 19.2483 34.2222 19.2483H36V23.0603H34.2222C33.2792 23.0603 32.3749 23.462 31.7081 24.1769C31.0413 24.8918 30.6667 25.8614 30.6667 26.8724V34.4965C30.6667 35.5075 30.2921 36.4772 29.6253 37.1921C28.9585 37.907 28.0541 38.3086 27.1111 38.3086H23.5556V34.4965H27.1111V24.9664C27.1111 23.9553 27.4857 22.9857 28.1525 22.2708C28.8193 21.5559 29.7237 21.1543 30.6667 21.1543C29.7237 21.1543 28.8193 20.7527 28.1525 20.0378C27.4857 19.3229 27.1111 18.3532 27.1111 17.3422V7.81207H23.5556V4H27.1111Z" fill="#0EE6B7"/>
</g>
<defs>
<filter id="filter0_d_43_2328" x="0" y="0" width="40" height="42.3086" filterUnits="userSpaceOnUse" color-interpolation-filters="sRGB">
<feFlood flood-opacity="0" result="BackgroundImageFix"/>
<feColorMatrix in="SourceAlpha" type="matrix" values="0 0 0 0 0 0 0 0 0 0 0 0 0 0 0 0 0 0 127 0" result="hardAlpha"/>
<feOffset/>
<feGaussianBlur stdDeviation="2"/>
<feComposite in2="hardAlpha" operator="out"/>
<feColorMatrix type="matrix" values="0 0 0 0 0.054902 0 0 0 0 0.901961 0 0 0 0 0.717647 0 0 0 1 0"/>
<feBlend mode="normal" in2="BackgroundImageFix" result="effect1_dropShadow_43_2328"/>
<feBlend mode="normal" in="SourceGraphic" in2="effect1_dropShadow_43_2328" result="shape"/>
</filter>
</defs>
</svg>
